<svg id="Camada_1" data-name="Camada 1" xmlns="http://www.w3.org/2000/svg" xmlns:xlink="http://www.w3.org/1999/xlink" viewBox="0 0 456.38 345.72"><defs><style>.cls-1{fill:none;}.cls-2{clip-path:url(#clip-path);}</style><clipPath id="clip-path" transform="translate(-295.76 -128.23)"><path class="cls-1" d="M640.8,209.84c-.18-3.06-2.15-5.19-3.84-7-22.29-23.44-119.89-23.53-154.32,23.52,0,0-37.2,28.8-44.88,38.64-.52.67-4.38-.43-7.92,1.44-5.7,3-5.89,10.65-8.4,12.72-11,9.08-41.11,24.3-40.08,36.72a8.3,8.3,0,0,0,2.88,5.52c6.65,4.93,19.29-4.35,21.6-1.2.36.48,3.73.86,1.92,1.2-35,6.48-5,12.48-5,12.48-12.33,18.1-25.84,38.91-21.38,48,3.14,6.4,15.74,9.24,20.18,5.52,5-4.2.92-18.13,2.8-18.51,1.65-.34,3.91,8.17,10.4,9.87,1,.25,5,1.53,4.56-.24-1.68-7.44-7-37.2-6.72-43,.15-3.66,28.32,3.12.72-14.4-1-.67-1.83-1.36-1-1.69,3.36-1.44,37.39-9.45,38.49-7.67,6.72,10.8,17.45,45.65,20.16,47.52,3.05,2.09,4.13-9.95,10.08-14.4,33.36-25,91.92-47.76,118.32-42.48,1.55.31,5.42,4,7,2.88,2-1.49-1.51-9.06-7.68-22.8-8.07-18-.82-24.12-.72-25.2C599.87,235.84,641.78,226.31,640.8,209.84Z"/></clipPath></defs><image width="1200" height="674" transform="translate(93.86 155.62) scale(0.28 0.28)" xlink:href="nerd_emoji.png"/><g class="cls-2"><image width="500" height="375" transform="translate(0 0) scale(0.89 0.89)" xlink:href="../../../Downloads/3d-illustration-academic-hat-with-golden-tassel-fotor-bg-remover-2024032212743.png"/></g><image width="512" height="512" transform="translate(268.56 153.11) scale(0.37 0.37)" xlink:href="261d.png"/></svg>