<svg id="Camada_1" data-name="Camada 1" xmlns="http://www.w3.org/2000/svg" xmlns:xlink="http://www.w3.org/1999/xlink" viewBox="0 0 143.3 94.86"><defs><style>.cls-1{fill:url(#Gradiente_sem_nome_31);}.cls-2{fill:url(#Gradiente_sem_nome_77);}.cls-3{fill:url(#Gradiente_sem_nome_85);}.cls-4{fill:url(#Gradiente_sem_nome_85-2);}.cls-5{fill:url(#Gradiente_sem_nome_85-3);}.cls-6{fill:url(#Gradiente_sem_nome_85-4);}</style><linearGradient id="Gradiente_sem_nome_31" x1="304.3" y1="288.09" x2="447.6" y2="288.09" gradientUnits="userSpaceOnUse"><stop offset="0" stop-color="#575756"/><stop offset="0.26" stop-color="#484847"/><stop offset="0.56" stop-color="#3f3f3e"/><stop offset="1" stop-color="#3c3c3b"/></linearGradient><radialGradient id="Gradiente_sem_nome_77" cx="387.96" cy="259.45" r="53.73" gradientUnits="userSpaceOnUse"><stop offset="0" stop-color="#c6c6c6"/><stop offset="0.08" stop-color="#a7a7a6"/><stop offset="0.19" stop-color="#868686"/><stop offset="0.31" stop-color="#6b6b6a"/><stop offset="0.44" stop-color="#565655"/><stop offset="0.58" stop-color="#474746"/><stop offset="0.74" stop-color="#3f3f3e"/><stop offset="1" stop-color="#3c3c3b"/></radialGradient><linearGradient id="Gradiente_sem_nome_85" x1="387.05" y1="244.3" x2="395.99" y2="239.34" gradientUnits="userSpaceOnUse"><stop offset="0.03" stop-color="#f6f6f6"/><stop offset="0.17" stop-color="#efefef"/><stop offset="0.35" stop-color="#dcdcdc"/><stop offset="0.58" stop-color="#bdbcbc"/><stop offset="0.83" stop-color="#929191"/><stop offset="1" stop-color="#706f6f"/></linearGradient><linearGradient id="Gradiente_sem_nome_85-2" x1="382.72" y1="256.02" x2="400.09" y2="256.02" xlink:href="#Gradiente_sem_nome_85"/><linearGradient id="Gradiente_sem_nome_85-3" x1="389.1" y1="242.61" x2="389.1" y2="242.61" xlink:href="#Gradiente_sem_nome_85"/><linearGradient id="Gradiente_sem_nome_85-4" x1="388.25" y1="243.08" x2="388.25" y2="243.08" xlink:href="#Gradiente_sem_nome_85"/></defs><path class="cls-1" d="M447.6,286.9,328.81,307.24l-23.57-21.35a2.86,2.86,0,0,1,1.92-5l133.72-12Z" transform="translate(-304.3 -212.38)"/><path class="cls-2" d="M444.35,287.45l-111,19a3.91,3.91,0,0,1-4.57-3.83l-.47-79.88a7.66,7.66,0,0,1,7.47-7.7l107.81-2.67a3.91,3.91,0,0,1,4,3.91V283.6A3.91,3.91,0,0,1,444.35,287.45Z" transform="translate(-304.3 -212.38)"/><path class="cls-3" d="M391.88,245.13l-.61,0L390,243.86a14.25,14.25,0,0,0-2.65-1.73l-1.91-.67.11-1.13,2.2.88a14.19,14.19,0,0,1,3,2.33l.3.44v0a4,4,0,0,1,3-2.7,17,17,0,0,1,2.66-.48c.28,1.54.17,3.71-2.6,4a8.49,8.49,0,0,1-2.85-.39Z" transform="translate(-304.3 -212.38)"/><path class="cls-4" d="M395.52,255.94c-.39,3.69,1.53,6.49,4,6.14a4.54,4.54,0,0,0,.53-.12,12.12,12.12,0,0,1-4.69,3.68c-5.62,2.63-11.52,1.2-12.57-4.53-.47-2.58.66-5.69,2.83-8.63,2.4-3.25-2.16-7.18,6-7.34,5.59-.11,4,2.9,6.29,5.16l.43.44A7,7,0,0,0,395.52,255.94Z" transform="translate(-304.3 -212.38)"/><path class="cls-5" d="M389.1,242.61Z" transform="translate(-304.3 -212.38)"/><path class="cls-6" d="M388.25,243.08Z" transform="translate(-304.3 -212.38)"/></svg>