<svg width="109" height="132" viewBox="0 0 109 132" fill="none" xmlns="http://www.w3.org/2000/svg">
<path d="M53.7713 0.000900066C49.2834 0.0217533 44.9976 0.404504 41.2265 1.0718C30.1173 3.03442 28.1003 7.14235 28.1003 14.7181V24.7233H54.3526V28.0584H28.1003H18.2481C10.6185 28.0584 3.93774 32.6442 1.8481 41.3681C-0.562285 51.3677 -0.669199 57.6075 1.8481 68.0487C3.7142 75.8207 8.17071 81.3584 15.8003 81.3584H24.8265V69.3644C24.8265 60.6994 32.3236 53.0562 41.2265 53.0562H67.4481C74.7473 53.0562 80.5743 47.0462 80.5743 39.7159V14.7181C80.5743 7.60356 74.5724 2.25918 67.4481 1.0718C62.9384 0.321092 58.2591 -0.0199532 53.7713 0.000900066ZM39.5742 8.04792C42.2859 8.04792 44.5004 10.2985 44.5004 13.0658C44.5004 15.8233 42.2859 18.0531 39.5742 18.0531C36.8528 18.0531 34.6481 15.8233 34.6481 13.0658C34.6481 10.2985 36.8528 8.04792 39.5742 8.04792Z" fill="url(#paint0_linear_23_220)"/>
<path d="M83.8481 28.0586V39.7161C83.8481 48.7539 76.1858 56.3608 67.4481 56.3608H41.2265C34.0439 56.3608 28.1003 62.5081 28.1003 69.7012V94.6989C28.1003 101.813 34.2869 105.998 41.2265 108.039C49.5365 110.483 57.5053 110.924 67.4481 108.039C74.0572 106.126 80.5743 102.275 80.5743 94.6989V84.6937H54.3526V81.3586H80.5743H93.7004C101.33 81.3586 104.173 76.0368 106.826 68.0489C109.567 59.8255 109.451 51.9174 106.826 41.3683C104.941 33.773 101.34 28.0586 93.7004 28.0586H83.8481ZM69.1004 91.3639C71.8218 91.3639 74.0265 93.5937 74.0265 96.3512C74.0265 99.1185 71.8218 101.369 69.1004 101.369C66.3887 101.369 64.1742 99.1185 64.1742 96.3512C64.1742 93.5937 66.3887 91.3639 69.1004 91.3639Z" fill="url(#paint1_linear_23_220)"/>
<path opacity="0.44382" d="M89.8307 125.032C89.8307 125.928 88.9208 126.815 87.1528 127.643C85.3848 128.471 82.7935 129.223 79.5267 129.856C76.2599 130.49 72.3817 130.992 68.1134 131.335C63.8452 131.678 59.2705 131.854 54.6505 131.854C50.0306 131.854 45.4559 131.678 41.1877 131.335C36.9194 130.992 33.0412 130.49 29.7744 129.856C26.5076 129.223 23.9162 128.471 22.1483 127.643C20.3803 126.815 19.4703 125.928 19.4703 125.032C19.4703 124.137 20.3803 123.25 22.1483 122.422C23.9162 121.594 26.5076 120.842 29.7744 120.209C33.0412 119.575 36.9194 119.073 41.1877 118.73C45.4559 118.387 50.0306 118.211 54.6505 118.211C59.2705 118.211 63.8452 118.387 68.1134 118.73C72.3817 119.073 76.2599 119.575 79.5267 120.209C82.7935 120.842 85.3848 121.594 87.1528 122.422C88.9208 123.25 89.8307 124.137 89.8307 125.032Z" fill="url(#paint2_radial_23_220)"/>
<defs>
<linearGradient id="paint0_linear_23_220" x1="8.56837e-08" y1="7.4431e-08" x2="60.5348" y2="51.5841" gradientUnits="userSpaceOnUse">
<stop stop-color="#5A9FD4"/>
<stop offset="1" stop-color="#306998"/>
</linearGradient>
<linearGradient id="paint1_linear_23_220" x1="68.4695" y1="95.51" x2="46.7519" y2="65.0772" gradientUnits="userSpaceOnUse">
<stop stop-color="#FFD43B"/>
<stop offset="1" stop-color="#FFE873"/>
</linearGradient>
<radialGradient id="paint2_radial_23_220" cx="0" cy="0" r="1" gradientUnits="userSpaceOnUse" gradientTransform="translate(54.6505 125.032) rotate(-90) scale(6.82174 29.9844)">
<stop stop-color="#B8B8B8" stop-opacity="0.498039"/>
<stop offset="1" stop-color="#7F7F7F" stop-opacity="0"/>
</radialGradient>
</defs>
</svg>
